<svg data-v-423bf9ae="" xmlns="http://www.w3.org/2000/svg" viewBox="0 0 412 90" class="iconLeftSlogan"><!----><!----><!----><g data-v-423bf9ae="" id="d9ecd458-eba2-45c2-9d7e-2ced822f6a2e" fill="#163530" transform="matrix(4.240282799826114,0,0,4.240282799826114,106.39575545706262,-26.07774010015264)"><path d="M6.46 12.58L6.46 17.09L5.20 17.09L5.20 13.19L5.20 13.19Q5.20 12.56 5.15 12.16L5.15 12.16L5.15 12.16Q5.10 11.77 4.99 11.55L4.99 11.55L4.99 11.55Q4.87 11.33 4.68 11.25L4.68 11.25L4.68 11.25Q4.49 11.18 4.20 11.18L4.20 11.18L4.20 11.18Q3.95 11.18 3.70 11.28L3.70 11.28L3.70 11.28Q3.45 11.38 3.22 11.57L3.22 11.57L3.22 11.57Q2.99 11.76 2.79 12.01L2.79 12.01L2.79 12.01Q2.60 12.27 2.46 12.58L2.46 12.58L2.46 17.09L1.20 17.09L1.20 12.89L1.20 12.89Q1.20 11.87 1.08 11.17L1.08 11.17L1.08 11.17Q0.96 10.47 0.85 10.12L0.85 10.12L2.08 10.12L2.08 10.12Q2.16 10.34 2.21 10.63L2.21 10.63L2.21 10.63Q2.27 10.93 2.30 11.18L2.30 11.18L2.30 11.18Q2.62 10.81 2.91 10.58L2.91 10.58L2.91 10.58Q3.19 10.35 3.48 10.22L3.48 10.22L3.48 10.22Q3.76 10.08 4.04 10.03L4.04 10.03L4.04 10.03Q4.32 9.98 4.61 9.98L4.61 9.98L4.61 9.98Q4.95 9.98 5.22 10.08L5.22 10.08L5.22 10.08Q5.50 10.17 5.70 10.33L5.70 10.33L5.70 10.33Q5.91 10.49 6.06 10.69L6.06 10.69L6.06 10.69Q6.21 10.90 6.30 11.13L6.30 11.13L6.30 11.13Q6.62 10.78 6.92 10.56L6.92 10.56L6.92 10.56Q7.22 10.34 7.51 10.21L7.51 10.21L7.51 10.21Q7.79 10.08 8.07 10.03L8.07 10.03L8.07 10.03Q8.35 9.98 8.61 9.98L8.61 9.98L8.61 9.98Q9.13 9.98 9.49 10.15L9.49 10.15L9.49 10.15Q9.84 10.32 10.06 10.64L10.06 10.64L10.06 10.64Q10.27 10.97 10.37 11.46L10.37 11.46L10.37 11.46Q10.46 11.94 10.46 12.58L10.46 12.58L10.46 17.09L9.19 17.09L9.19 13.33L9.19 13.33Q9.19 12.67 9.15 12.25L9.15 12.25L9.15 12.25Q9.10 11.83 8.99 11.59L8.99 11.59L8.99 11.59Q8.87 11.35 8.68 11.27L8.68 11.27L8.68 11.27Q8.49 11.18 8.20 11.18L8.20 11.18L8.20 11.18Q7.95 11.18 7.70 11.28L7.70 11.28L7.70 11.28Q7.46 11.38 7.23 11.56L7.23 11.56L7.23 11.56Q7 11.74 6.81 12.00L6.81 12.00L6.81 12.00Q6.61 12.26 6.46 12.58L6.46 12.58ZM17.02 12.07L17.02 11.20L17.02 11.20Q16.94 11.18 16.84 11.16L16.84 11.16L16.84 11.16Q16.73 11.14 16.59 11.12L16.59 11.12L16.59 11.12Q16.45 11.09 16.27 11.08L16.27 11.08L16.27 11.08Q16.08 11.07 15.83 11.07L15.83 11.07L15.83 11.07Q15.16 11.07 14.71 11.34L14.71 11.34L14.71 11.34Q14.26 11.61 13.99 12.06L13.99 12.06L13.99 12.06Q13.73 12.51 13.61 13.09L13.61 13.09L13.61 13.09Q13.50 13.67 13.50 14.29L13.50 14.29L13.50 14.29Q13.50 14.68 13.58 15.02L13.58 15.02L13.58 15.02Q13.66 15.35 13.79 15.59L13.79 15.59L13.79 15.59Q13.93 15.83 14.11 15.97L14.11 15.97L14.11 15.97Q14.29 16.10 14.49 16.10L14.49 16.10L14.49 16.10Q14.79 16.10 15.10 15.87L15.10 15.87L15.10 15.87Q15.40 15.63 15.68 15.27L15.68 15.27L15.68 15.27Q15.96 14.90 16.21 14.45L16.21 14.45L16.21 14.45Q16.45 13.99 16.64 13.55L16.64 13.55L16.64 13.55Q16.82 13.10 16.92 12.70L16.92 12.70L16.92 12.70Q17.02 12.30 17.02 12.07L17.02 12.07ZM18.73 17.09L17.53 17.09L17.53 17.09Q17.46 16.93 17.40 16.64L17.40 16.64L17.40 16.64Q17.34 16.35 17.31 16.03L17.31 16.03L17.31 16.03Q17.27 15.70 17.25 15.38L17.25 15.38L17.25 15.38Q17.23 15.06 17.23 14.83L17.23 14.83L17.23 14.29L17.23 14.29Q17.02 14.82 16.74 15.35L16.74 15.35L16.74 15.35Q16.45 15.88 16.09 16.30L16.09 16.30L16.09 16.30Q15.72 16.73 15.27 16.99L15.27 16.99L15.27 16.99Q14.82 17.26 14.29 17.26L14.29 17.26L14.29 17.26Q13.86 17.26 13.48 17.07L13.48 17.07L13.48 17.07Q13.10 16.88 12.83 16.50L12.83 16.50L12.83 16.50Q12.55 16.13 12.39 15.57L12.39 15.57L12.39 15.57Q12.24 15.01 12.24 14.29L12.24 14.29L12.24 14.29Q12.24 13.47 12.46 12.70L12.46 12.70L12.46 12.70Q12.67 11.92 13.13 11.32L13.13 11.32L13.13 11.32Q13.58 10.71 14.27 10.35L14.27 10.35L14.27 10.35Q14.97 9.98 15.93 9.98L15.93 9.98L15.93 9.98Q16.59 9.98 17.18 10.07L17.18 10.07L17.18 10.07Q17.77 10.15 18.29 10.29L18.29 10.29L18.29 13.47L18.29 13.47Q18.29 14.76 18.41 15.64L18.41 15.64L18.41 15.64Q18.53 16.52 18.73 17.09L18.73 17.09ZM19.58 11.28L19.58 10.29L20.95 10.29L20.95 8.07L22.22 8.07L22.22 10.29L24.44 10.29L24.44 11.28L22.22 11.28L22.22 14.42L22.22 14.42Q22.22 14.95 22.27 15.29L22.27 15.29L22.27 15.29Q22.32 15.62 22.43 15.81L22.43 15.81L22.43 15.81Q22.53 16.00 22.70 16.06L22.70 16.06L22.70 16.06Q22.86 16.13 23.09 16.13L23.09 16.13L23.09 16.13Q23.39 16.13 23.75 16.00L23.75 16.00L23.75 16.00Q24.12 15.87 24.58 15.62L24.58 15.62L24.58 16.71L24.58 16.71Q24.10 17.02 23.67 17.14L23.67 17.14L23.67 17.14Q23.24 17.26 22.88 17.26L22.88 17.26L22.88 17.26Q22.48 17.26 22.13 17.17L22.13 17.17L22.13 17.17Q21.78 17.08 21.52 16.84L21.52 16.84L21.52 16.84Q21.25 16.61 21.10 16.23L21.10 16.23L21.10 16.23Q20.95 15.84 20.95 15.24L20.95 15.24L20.95 11.28L19.58 11.28ZM31.85 13.77L27.00 13.77L27.00 13.77Q27.02 14.38 27.19 14.82L27.19 14.82L27.19 14.82Q27.36 15.26 27.65 15.56L27.65 15.56L27.65 15.56Q27.94 15.85 28.33 15.99L28.33 15.99L28.33 15.99Q28.72 16.13 29.19 16.13L29.19 16.13L29.19 16.13Q29.85 16.13 30.49 15.98L30.49 15.98L30.49 15.98Q31.12 15.83 31.75 15.45L31.75 15.45L31.89 16.58L31.89 16.58Q31.53 16.76 31.18 16.89L31.18 16.89L31.18 16.89Q30.83 17.02 30.48 17.10L30.48 17.10L30.48 17.10Q30.13 17.19 29.77 17.22L29.77 17.22L29.77 17.22Q29.42 17.26 29.02 17.26L29.02 17.26L29.02 17.26Q28.36 17.26 27.77 17.03L27.77 17.03L27.77 17.03Q27.17 16.80 26.72 16.35L26.72 16.35L26.72 16.35Q26.27 15.91 26.00 15.24L26.00 15.24L26.00 15.24Q25.74 14.58 25.74 13.71L25.74 13.71L25.74 13.71Q25.74 12.86 25.97 12.17L25.97 12.17L25.97 12.17Q26.20 11.48 26.62 11.00L26.62 11.00L26.62 11.00Q27.04 10.51 27.65 10.24L27.65 10.24L27.65 10.24Q28.26 9.98 29.02 9.98L29.02 9.98L29.02 9.98Q29.58 9.98 30.01 10.11L30.01 10.11L30.01 10.11Q30.44 10.25 30.75 10.48L30.75 10.48L30.75 10.48Q31.07 10.72 31.28 11.03L31.28 11.03L31.28 11.03Q31.49 11.35 31.62 11.71L31.62 11.71L31.62 11.71Q31.75 12.07 31.80 12.47L31.80 12.47L31.80 12.47Q31.86 12.86 31.86 13.24L31.86 13.24L31.86 13.51L31.86 13.51Q31.86 13.68 31.85 13.77L31.85 13.77ZM28.92 11.01L28.92 11.01L28.92 11.01Q28.16 11.01 27.69 11.45L27.69 11.45L27.69 11.45Q27.21 11.89 27.06 12.82L27.06 12.82L30.63 12.82L30.63 12.82Q30.63 12.38 30.50 12.04L30.50 12.04L30.50 12.04Q30.37 11.70 30.14 11.47L30.14 11.47L30.14 11.47Q29.91 11.24 29.60 11.12L29.60 11.12L29.60 11.12Q29.29 11.01 28.92 11.01ZM38.08 14.39L38.08 11.42L38.08 11.42Q37.91 11.35 37.73 11.30L37.73 11.30L37.73 11.30Q37.54 11.25 37.35 11.22L37.35 11.22L37.35 11.22Q37.16 11.18 36.98 11.16L36.98 11.16L36.98 11.16Q36.80 11.14 36.64 11.14L36.64 11.14L36.64 11.14Q36.08 11.14 35.68 11.37L35.68 11.37L35.68 11.37Q35.29 11.60 35.04 11.97L35.04 11.97L35.04 11.97Q34.79 12.35 34.67 12.82L34.67 12.82L34.67 12.82Q34.56 13.29 34.56 13.77L34.56 13.77L34.56 13.77Q34.56 14.41 34.65 14.83L34.65 14.83L34.65 14.83Q34.75 15.25 34.93 15.50L34.93 15.50L34.93 15.50Q35.10 15.75 35.34 15.86L35.34 15.86L35.34 15.86Q35.57 15.96 35.85 15.96L35.85 15.96L35.85 15.96Q36.11 15.96 36.41 15.86L36.41 15.86L36.41 15.86Q36.70 15.75 37.00 15.55L37.00 15.55L37.00 15.55Q37.30 15.35 37.57 15.06L37.57 15.06L37.57 15.06Q37.85 14.77 38.08 14.39L38.08 14.39ZM39.34 10.49L39.34 16.92L39.34 16.92Q39.34 17.82 39.08 18.46L39.08 18.46L39.08 18.46Q38.81 19.11 38.39 19.51L38.39 19.51L38.39 19.51Q37.96 19.92 37.41 20.11L37.41 20.11L37.41 20.11Q36.87 20.30 36.30 20.30L36.30 20.30L36.30 20.30Q35.64 20.30 35.00 20.08L35.00 20.08L35.00 20.08Q34.35 19.85 33.80 19.48L33.80 19.48L34.25 18.42L34.25 18.42Q34.73 18.77 35.23 18.99L35.23 18.99L35.23 18.99Q35.72 19.21 36.23 19.21L36.23 19.21L36.23 19.21Q36.50 19.21 36.82 19.11L36.82 19.11L36.82 19.11Q37.14 19.02 37.42 18.78L37.42 18.78L37.42 18.78Q37.70 18.55 37.89 18.15L37.89 18.15L37.89 18.15Q38.08 17.75 38.08 17.16L38.08 17.16L38.08 15.76L38.08 15.76Q37.81 16.09 37.51 16.35L37.51 16.35L37.51 16.35Q37.21 16.60 36.91 16.78L36.91 16.78L36.91 16.78Q36.61 16.95 36.30 17.04L36.30 17.04L36.30 17.04Q36.00 17.12 35.72 17.12L35.72 17.12L35.72 17.12Q35.25 17.12 34.81 16.96L34.81 16.96L34.81 16.96Q34.37 16.80 34.03 16.44L34.03 16.44L34.03 16.44Q33.69 16.08 33.49 15.50L33.49 15.50L33.49 15.50Q33.29 14.93 33.29 14.12L33.29 14.12L33.29 14.12Q33.29 13.33 33.50 12.58L33.50 12.58L33.50 12.58Q33.70 11.84 34.13 11.26L34.13 11.26L34.13 11.26Q34.56 10.68 35.24 10.33L35.24 10.33L35.24 10.33Q35.91 9.98 36.85 9.98L36.85 9.98L36.85 9.98Q37.15 9.98 37.48 10.02L37.48 10.02L37.48 10.02Q37.80 10.07 38.12 10.14L38.12 10.14L38.12 10.14Q38.45 10.22 38.75 10.31L38.75 10.31L38.75 10.31Q39.06 10.40 39.34 10.49L39.34 10.49ZM41.53 16.34L41.53 16.34L41.53 16.34Q41.53 16.15 41.60 15.98L41.60 15.98L41.60 15.98Q41.67 15.81 41.80 15.69L41.80 15.69L41.80 15.69Q41.92 15.56 42.09 15.49L42.09 15.49L42.09 15.49Q42.26 15.42 42.45 15.42L42.45 15.42L42.45 15.42Q42.64 15.42 42.81 15.49L42.81 15.49L42.81 15.49Q42.98 15.56 43.10 15.69L43.10 15.69L43.10 15.69Q43.23 15.81 43.30 15.98L43.30 15.98L43.30 15.98Q43.37 16.15 43.37 16.34L43.37 16.34L43.37 16.34Q43.37 16.53 43.30 16.70L43.30 16.70L43.30 16.70Q43.23 16.86 43.10 16.99L43.10 16.99L43.10 16.99Q42.98 17.12 42.81 17.19L42.81 17.19L42.81 17.19Q42.64 17.26 42.45 17.26L42.45 17.26L42.45 17.26Q42.26 17.26 42.09 17.19L42.09 17.19L42.09 17.19Q41.92 17.12 41.80 16.99L41.80 16.99L41.80 16.99Q41.67 16.86 41.60 16.70L41.60 16.70L41.60 16.70Q41.53 16.53 41.53 16.34ZM44.84 11.28L44.84 10.29L46.21 10.29L46.21 8.07L47.48 8.07L47.48 10.29L49.70 10.29L49.70 11.28L47.48 11.28L47.48 14.42L47.48 14.42Q47.48 14.95 47.53 15.29L47.53 15.29L47.53 15.29Q47.58 15.62 47.68 15.81L47.68 15.81L47.68 15.81Q47.79 16.00 47.95 16.06L47.95 16.06L47.95 16.06Q48.12 16.13 48.35 16.13L48.35 16.13L48.35 16.13Q48.64 16.13 49.01 16.00L49.01 16.00L49.01 16.00Q49.38 15.87 49.83 15.62L49.83 15.62L49.83 16.71L49.83 16.71Q49.36 17.02 48.93 17.14L48.93 17.14L48.93 17.14Q48.50 17.26 48.14 17.26L48.14 17.26L48.14 17.26Q47.74 17.26 47.39 17.17L47.39 17.17L47.39 17.17Q47.04 17.08 46.77 16.84L46.77 16.84L46.77 16.84Q46.51 16.61 46.36 16.23L46.36 16.23L46.36 16.23Q46.21 15.84 46.21 15.24L46.21 15.24L46.21 11.28L44.84 11.28ZM57.11 13.77L52.26 13.77L52.26 13.77Q52.28 14.38 52.45 14.82L52.45 14.82L52.45 14.82Q52.62 15.26 52.91 15.56L52.91 15.56L52.91 15.56Q53.20 15.85 53.59 15.99L53.59 15.99L53.59 15.99Q53.98 16.13 54.45 16.13L54.45 16.13L54.45 16.13Q55.11 16.13 55.75 15.98L55.75 15.98L55.75 15.98Q56.38 15.83 57.01 15.45L57.01 15.45L57.15 16.58L57.15 16.58Q56.79 16.76 56.44 16.89L56.44 16.89L56.44 16.89Q56.09 17.02 55.74 17.10L55.74 17.10L55.74 17.10Q55.39 17.19 55.03 17.22L55.03 17.22L55.03 17.22Q54.67 17.26 54.28 17.26L54.28 17.26L54.28 17.26Q53.62 17.26 53.03 17.03L53.03 17.03L53.03 17.03Q52.43 16.80 51.98 16.35L51.98 16.35L51.98 16.35Q51.53 15.91 51.26 15.24L51.26 15.24L51.26 15.24Q51.00 14.58 51.00 13.71L51.00 13.71L51.00 13.71Q51.00 12.86 51.23 12.17L51.23 12.17L51.23 12.17Q51.45 11.48 51.88 11.00L51.88 11.00L51.88 11.00Q52.30 10.51 52.91 10.24L52.91 10.24L52.91 10.24Q53.52 9.98 54.28 9.98L54.28 9.98L54.28 9.98Q54.84 9.98 55.27 10.11L55.27 10.11L55.27 10.11Q55.70 10.25 56.01 10.48L56.01 10.48L56.01 10.48Q56.33 10.72 56.54 11.03L56.54 11.03L56.54 11.03Q56.75 11.35 56.88 11.71L56.88 11.71L56.88 11.71Q57.00 12.07 57.06 12.47L57.06 12.47L57.06 12.47Q57.11 12.86 57.11 13.24L57.11 13.24L57.11 13.51L57.11 13.51Q57.11 13.68 57.11 13.77L57.11 13.77ZM54.17 11.01L54.17 11.01L54.17 11.01Q53.42 11.01 52.94 11.45L52.94 11.45L52.94 11.45Q52.47 11.89 52.32 12.82L52.32 12.82L55.88 12.82L55.88 12.82Q55.88 12.38 55.76 12.04L55.76 12.04L55.76 12.04Q55.63 11.70 55.40 11.47L55.40 11.47L55.40 11.47Q55.17 11.24 54.86 11.12L54.86 11.12L54.86 11.12Q54.54 11.01 54.17 11.01ZM64.02 15.31L64.16 16.51L64.16 16.51Q63.90 16.71 63.64 16.85L63.64 16.85L63.64 16.85Q63.38 16.99 63.10 17.08L63.10 17.08L63.10 17.08Q62.82 17.17 62.50 17.22L62.50 17.22L62.50 17.22Q62.18 17.26 61.80 17.26L61.80 17.26L61.80 17.26Q61.11 17.26 60.50 17.02L60.50 17.02L60.50 17.02Q59.90 16.78 59.45 16.32L59.45 16.32L59.45 16.32Q59.00 15.86 58.74 15.21L58.74 15.21L58.74 15.21Q58.48 14.56 58.48 13.74L58.48 13.74L58.48 13.74Q58.48 12.97 58.73 12.28L58.73 12.28L58.73 12.28Q58.98 11.60 59.44 11.09L59.44 11.09L59.44 11.09Q59.90 10.58 60.56 10.28L60.56 10.28L60.56 10.28Q61.22 9.98 62.04 9.98L62.04 9.98L62.04 9.98Q62.72 9.98 63.22 10.14L63.22 10.14L63.22 10.14Q63.71 10.30 64.09 10.56L64.09 10.56L63.85 11.79L63.85 11.79Q63.38 11.45 62.92 11.28L62.92 11.28L62.92 11.28Q62.47 11.11 61.93 11.11L61.93 11.11L61.93 11.11Q61.48 11.11 61.08 11.28L61.08 11.28L61.08 11.28Q60.69 11.46 60.40 11.79L60.40 11.79L60.40 11.79Q60.11 12.11 59.94 12.59L59.94 12.59L59.94 12.59Q59.78 13.07 59.78 13.67L59.78 13.67L59.78 13.67Q59.78 14.23 59.93 14.68L59.93 14.68L59.93 14.68Q60.08 15.13 60.36 15.45L60.36 15.45L60.36 15.45Q60.64 15.78 61.04 15.96L61.04 15.96L61.04 15.96Q61.43 16.13 61.93 16.13L61.93 16.13L61.93 16.13Q62.56 16.13 63.06 15.92L63.06 15.92L63.06 15.92Q63.57 15.71 64.02 15.31L64.02 15.31ZM71.91 17.09L70.65 17.09L70.65 13.33L70.65 13.33Q70.65 12.69 70.56 12.27L70.56 12.27L70.56 12.27Q70.48 11.85 70.31 11.61L70.31 11.61L70.31 11.61Q70.14 11.37 69.88 11.27L69.88 11.27L69.88 11.27Q69.62 11.18 69.28 11.18L69.28 11.18L69.28 11.18Q68.91 11.18 68.56 11.35L68.56 11.35L68.56 11.35Q68.21 11.53 67.92 11.80L67.92 11.80L67.92 11.80Q67.62 12.08 67.40 12.43L67.40 12.43L67.40 12.43Q67.17 12.78 67.06 13.13L67.06 13.13L67.06 17.09L65.80 17.09L65.80 9.37L65.80 9.37Q65.80 8.26 65.78 7.43L65.78 7.43L65.78 7.43Q65.77 6.60 65.69 6.15L65.69 6.15L67.06 6.15L67.06 11.42L67.06 11.42Q67.57 10.70 68.25 10.34L68.25 10.34L68.25 10.34Q68.93 9.98 69.66 9.98L69.66 9.98L69.66 9.98Q70.75 9.98 71.33 10.69L71.33 10.69L71.33 10.69Q71.91 11.41 71.91 12.82L71.91 12.82L71.91 17.09Z"></path></g><defs data-v-423bf9ae=""><linearGradient data-v-423bf9ae="" gradientTransform="rotate(25)" id="4d83a679-609f-4a82-94a0-78196481c5e4" x1="0%" y1="0%" x2="100%" y2="0%"><stop data-v-423bf9ae="" offset="0%" style="stop-color: rgb(2, 24, 2); stop-opacity: 1;"></stop><stop data-v-423bf9ae="" offset="100%" style="stop-color: rgb(96, 219, 204); stop-opacity: 1;"></stop></linearGradient></defs><g data-v-423bf9ae="" id="4d9b7181-69ba-4433-9525-785fe4fce818" transform="matrix(2.8125,0,0,2.8125,0,0)" stroke="none" fill="url(#4d83a679-609f-4a82-94a0-78196481c5e4)"><path d="M0 32h32V0H0v32zM2 2h2.981L16.01 21.103 27.04 2H30v28H2V2z"></path></g><!----><g data-v-423bf9ae="" id="7908b68f-888b-415a-822a-18e0c051cf9e" fill="#163530" transform="matrix(0.2085077139243649,0,0,0.2085077139243649,109.74563016037521,58.815677055123054)"><path d="M1.22 15.68L1.22 5.88L2.39 5.88L2.39 14.59L7.52 14.59L7.52 15.68L1.22 15.68ZM16.88 15.68L16.88 5.88L22.82 5.88L22.82 6.97L18.06 6.97L18.06 10.22L22.74 10.22L22.74 11.31L18.06 11.31L18.06 14.59L22.90 14.59L22.90 15.68L16.88 15.68ZM31.98 6.97L31.98 5.88L38.86 5.88L38.86 6.97L36.01 6.97L36.01 15.68L34.83 15.68L34.83 6.97L31.98 6.97ZM50.01 6.66L50.01 6.66L50.01 6.66Q50.01 6.26 50.30 5.97L50.30 5.97L50.30 5.97Q50.58 5.68 50.99 5.68L50.99 5.68L50.99 5.68Q51.39 5.68 51.68 5.97L51.68 5.97L51.68 5.97Q51.97 6.26 51.97 6.66L51.97 6.66L51.97 8.04L51.97 8.04Q51.97 8.51 51.67 8.82L51.67 8.82L51.67 8.82Q51.37 9.13 50.89 9.13L50.89 9.13L50.18 9.13L50.18 8.37L50.83 8.37L50.83 8.37Q51.21 8.37 51.21 7.95L51.21 7.95L51.21 7.60L51.21 7.60Q51.10 7.64 50.97 7.64L50.97 7.64L50.97 7.64Q50.58 7.64 50.30 7.36L50.30 7.36L50.30 7.36Q50.01 7.07 50.01 6.66ZM68.87 9.21L68.87 8.71L68.87 8.71Q68.87 8.23 68.68 7.87L68.68 7.87L68.68 7.87Q68.49 7.50 68.17 7.27L68.17 7.27L68.17 7.27Q67.84 7.03 67.42 6.90L67.42 6.90L67.42 6.90Q67.00 6.78 66.54 6.78L66.54 6.78L66.54 6.78Q66.14 6.78 65.77 6.88L65.77 6.88L65.77 6.88Q65.41 6.99 65.12 7.18L65.12 7.18L65.12 7.18Q64.83 7.38 64.67 7.66L64.67 7.66L64.67 7.66Q64.50 7.95 64.50 8.33L64.50 8.33L64.50 8.41L64.50 8.41Q64.50 8.82 64.67 9.11L64.67 9.11L64.67 9.11Q64.83 9.39 65.16 9.60L65.16 9.60L65.16 9.60Q65.49 9.80 65.98 9.93L65.98 9.93L65.98 9.93Q66.47 10.07 67.13 10.16L67.13 10.16L67.13 10.16Q68.67 10.40 69.40 11.07L69.40 11.07L69.40 11.07Q70.13 11.73 70.13 12.85L70.13 12.85L70.13 13.02L70.13 13.02Q70.13 13.65 69.91 14.17L69.91 14.17L69.91 14.17Q69.69 14.70 69.27 15.08L69.27 15.08L69.27 15.08Q68.84 15.46 68.21 15.67L68.21 15.67L68.21 15.67Q67.58 15.88 66.75 15.88L66.75 15.88L66.75 15.88Q65.81 15.88 65.09 15.60L65.09 15.60L65.09 15.60Q64.37 15.33 63.89 14.85L63.89 14.85L63.89 14.85Q63.41 14.36 63.15 13.71L63.15 13.71L63.15 13.71Q62.90 13.06 62.90 12.29L62.90 12.29L62.90 11.87L64.08 11.87L64.08 12.21L64.08 12.21Q64.08 13.50 64.78 14.14L64.78 14.14L64.78 14.14Q65.49 14.78 66.75 14.78L66.75 14.78L66.75 14.78Q67.84 14.78 68.40 14.30L68.40 14.30L68.40 14.30Q68.95 13.82 68.95 13.02L68.95 13.02L68.95 12.94L68.95 12.94Q68.95 12.17 68.38 11.76L68.38 11.76L68.38 11.76Q67.82 11.35 66.54 11.17L66.54 11.17L66.54 11.17Q65.80 11.07 65.20 10.87L65.20 10.87L65.20 10.87Q64.61 10.67 64.19 10.34L64.19 10.34L64.19 10.34Q63.77 10.01 63.55 9.55L63.55 9.55L63.55 9.55Q63.32 9.09 63.32 8.46L63.32 8.46L63.32 8.29L63.32 8.29Q63.32 7.71 63.56 7.24L63.56 7.24L63.56 7.24Q63.80 6.76 64.22 6.41L64.22 6.41L64.22 6.41Q64.65 6.06 65.25 5.87L65.25 5.87L65.25 5.87Q65.84 5.68 66.56 5.68L66.56 5.68L66.56 5.68Q67.38 5.68 68.03 5.92L68.03 5.92L68.03 5.92Q68.68 6.16 69.13 6.56L69.13 6.56L69.13 6.56Q69.58 6.96 69.81 7.50L69.81 7.50L69.81 7.50Q70.04 8.04 70.04 8.62L70.04 8.62L70.04 9.21L68.87 9.21ZM96.75 12.07L96.75 10.98L101.12 10.98L101.12 15.68L100.03 15.68L100.03 14.50L99.86 14.50L99.86 14.50Q99.62 15.12 99.02 15.50L99.02 15.50L99.02 15.50Q98.42 15.88 97.62 15.88L97.62 15.88L97.62 15.88Q96.04 15.88 95.14 14.85L95.14 14.85L95.14 14.85Q94.23 13.83 94.23 11.87L94.23 11.87L94.23 9.69L94.23 9.69Q94.23 7.78 95.14 6.73L95.14 6.73L95.14 6.73Q96.05 5.68 97.68 5.68L97.68 5.68L97.68 5.68Q98.52 5.68 99.16 5.96L99.16 5.96L99.16 5.96Q99.81 6.23 100.24 6.71L100.24 6.71L100.24 6.71Q100.67 7.20 100.90 7.85L100.90 7.85L100.90 7.85Q101.12 8.50 101.12 9.24L101.12 9.24L101.12 9.41L99.95 9.41L99.95 9.24L99.95 9.24Q99.95 8.76 99.81 8.32L99.81 8.32L99.81 8.32Q99.68 7.87 99.41 7.53L99.41 7.53L99.41 7.53Q99.13 7.18 98.71 6.98L98.71 6.98L98.71 6.98Q98.28 6.78 97.68 6.78L97.68 6.78L97.68 6.78Q96.54 6.78 95.98 7.60L95.98 7.60L95.98 7.60Q95.41 8.43 95.41 9.77L95.41 9.77L95.41 11.79L95.41 11.79Q95.41 13.23 95.98 14.01L95.98 14.01L95.98 14.01Q96.54 14.78 97.71 14.78L97.71 14.78L97.71 14.78Q98.76 14.78 99.35 14.11L99.35 14.11L99.35 14.11Q99.95 13.44 99.95 12.24L99.95 12.24L99.95 12.07L96.75 12.07ZM109.82 11.87L109.82 9.69L109.82 9.69Q109.82 7.78 110.73 6.73L110.73 6.73L110.73 6.73Q111.64 5.68 113.26 5.68L113.26 5.68L113.26 5.68Q114.88 5.68 115.79 6.73L115.79 6.73L115.79 6.73Q116.70 7.78 116.70 9.69L116.70 9.69L116.70 11.87L116.70 11.87Q116.70 13.83 115.79 14.85L115.79 14.85L115.79 14.85Q114.88 15.88 113.26 15.88L113.26 15.88L113.26 15.88Q111.64 15.88 110.73 14.85L110.73 14.85L110.73 14.85Q109.82 13.83 109.82 11.87L109.82 11.87ZM113.26 14.78L113.26 14.78L113.26 14.78Q114.39 14.78 114.96 14.01L114.96 14.01L114.96 14.01Q115.53 13.23 115.53 11.79L115.53 11.79L115.53 9.77L115.53 9.77Q115.53 8.43 114.96 7.60L114.96 7.60L114.96 7.60Q114.39 6.78 113.26 6.78L113.26 6.78L113.26 6.78Q112.13 6.78 111.56 7.60L111.56 7.60L111.56 7.60Q110.99 8.43 110.99 9.77L110.99 9.77L110.99 11.79L110.99 11.79Q110.99 13.23 111.56 14.01L111.56 14.01L111.56 14.01Q112.13 14.78 113.26 14.78ZM141.29 6.97L141.29 5.88L147.50 5.88L147.50 6.97L144.98 6.97L144.98 14.59L147.50 14.59L147.50 15.68L141.29 15.68L141.29 14.59L143.81 14.59L143.81 6.97L141.29 6.97ZM159.05 5.88L161.88 15.18L162.05 15.18L162.05 5.88L163.23 5.88L163.23 15.68L160.87 15.68L158.05 6.38L157.88 6.38L157.88 15.68L156.70 15.68L156.70 5.88L159.05 5.88ZM174.40 15.68L171.63 5.88L172.89 5.88L175.45 15.18L175.62 15.18L178.18 5.88L179.44 5.88L176.67 15.68L174.40 15.68ZM188.13 15.68L188.13 5.88L194.07 5.88L194.07 6.97L189.31 6.97L189.31 10.22L193.98 10.22L193.98 11.31L189.31 11.31L189.31 14.59L194.15 14.59L194.15 15.68L188.13 15.68ZM205.76 5.88L208.59 15.18L208.75 15.18L208.75 5.88L209.93 5.88L209.93 15.68L207.58 15.68L204.75 6.38L204.58 6.38L204.58 15.68L203.41 15.68L203.41 5.88L205.76 5.88ZM218.79 6.97L218.79 5.88L225.68 5.88L225.68 6.97L222.82 6.97L222.82 15.68L221.65 15.68L221.65 6.97L218.79 6.97ZM249.93 6.97L249.93 5.88L256.82 5.88L256.82 6.97L253.96 6.97L253.96 15.68L252.78 15.68L252.78 6.97L249.93 6.97ZM265.50 11.87L265.50 9.69L265.50 9.69Q265.50 7.78 266.41 6.73L266.41 6.73L266.41 6.73Q267.32 5.68 268.94 5.68L268.94 5.68L268.94 5.68Q270.56 5.68 271.47 6.73L271.47 6.73L271.47 6.73Q272.38 7.78 272.38 9.69L272.38 9.69L272.38 11.87L272.38 11.87Q272.38 13.83 271.47 14.85L271.47 14.85L271.47 14.85Q270.56 15.88 268.94 15.88L268.94 15.88L268.94 15.88Q267.32 15.88 266.41 14.85L266.41 14.85L266.41 14.85Q265.50 13.83 265.50 11.87L265.50 11.87ZM268.94 14.78L268.94 14.78L268.94 14.78Q270.07 14.78 270.64 14.01L270.64 14.01L270.64 14.01Q271.21 13.23 271.21 11.79L271.21 11.79L271.21 9.77L271.21 9.77Q271.21 8.43 270.64 7.60L270.64 7.60L270.64 7.60Q270.07 6.78 268.94 6.78L268.94 6.78L268.94 6.78Q267.81 6.78 267.24 7.60L267.24 7.60L267.24 7.60Q266.67 8.43 266.67 9.77L266.67 9.77L266.67 11.79L266.67 11.79Q266.67 13.23 267.24 14.01L267.24 14.01L267.24 14.01Q267.81 14.78 268.94 14.78ZM280.87 15.68L280.87 5.88L283.11 5.88L284.42 15.18L284.59 15.18L285.91 5.88L288.15 5.88L288.15 15.68L287.06 15.68L287.06 6.38L286.89 6.38L285.57 15.68L283.44 15.68L282.13 6.38L281.96 6.38L281.96 15.68L280.87 15.68ZM296.63 11.87L296.63 9.69L296.63 9.69Q296.63 7.78 297.54 6.73L297.54 6.73L297.54 6.73Q298.45 5.68 300.08 5.68L300.08 5.68L300.08 5.68Q301.70 5.68 302.61 6.73L302.61 6.73L302.61 6.73Q303.52 7.78 303.52 9.69L303.52 9.69L303.52 11.87L303.52 11.87Q303.52 13.83 302.61 14.85L302.61 14.85L302.61 14.85Q301.70 15.88 300.08 15.88L300.08 15.88L300.08 15.88Q298.45 15.88 297.54 14.85L297.54 14.85L297.54 14.85Q296.63 13.83 296.63 11.87L296.63 11.87ZM300.08 14.78L300.08 14.78L300.08 14.78Q301.21 14.78 301.78 14.01L301.78 14.01L301.78 14.01Q302.34 13.23 302.34 11.79L302.34 11.79L302.34 9.77L302.34 9.77Q302.34 8.43 301.78 7.60L301.78 7.60L301.78 7.60Q301.21 6.78 300.08 6.78L300.08 6.78L300.08 6.78Q298.94 6.78 298.38 7.60L298.38 7.60L298.38 7.60Q297.81 8.43 297.81 9.77L297.81 9.77L297.81 11.79L297.81 11.79Q297.81 13.23 298.38 14.01L298.38 14.01L298.38 14.01Q298.94 14.78 300.08 14.78ZM318.71 12.15L318.71 15.68L317.53 15.68L317.53 12.40L317.53 12.40Q317.53 12.04 317.37 11.84L317.37 11.84L317.37 11.84Q317.20 11.65 316.78 11.65L316.78 11.65L313.73 11.65L313.73 15.68L312.55 15.68L312.55 5.88L316.05 5.88L316.05 5.88Q316.81 5.88 317.37 6.10L317.37 6.10L317.37 6.10Q317.93 6.31 318.30 6.68L318.30 6.68L318.30 6.68Q318.67 7.04 318.86 7.53L318.86 7.53L318.86 7.53Q319.05 8.01 319.05 8.54L319.05 8.54L319.05 8.96L319.05 8.96Q319.05 9.51 318.75 10.05L318.75 10.05L318.75 10.05Q318.44 10.60 317.81 10.89L317.81 10.89L317.81 11.06L317.81 11.06Q318.23 11.13 318.47 11.40L318.47 11.40L318.47 11.40Q318.71 11.66 318.71 12.15L318.71 12.15ZM313.73 6.97L313.73 10.56L315.91 10.56L315.91 10.56Q316.90 10.56 317.39 10.13L317.39 10.13L317.39 10.13Q317.87 9.70 317.87 8.88L317.87 8.88L317.87 8.62L317.87 8.62Q317.87 7.88 317.39 7.43L317.39 7.43L317.39 7.43Q316.90 6.97 315.91 6.97L315.91 6.97L313.73 6.97ZM334.28 12.15L334.28 15.68L333.10 15.68L333.10 12.40L333.10 12.40Q333.10 12.04 332.93 11.84L332.93 11.84L332.93 11.84Q332.77 11.65 332.35 11.65L332.35 11.65L329.29 11.65L329.29 15.68L328.12 15.68L328.12 5.88L331.62 5.88L331.62 5.88Q332.37 5.88 332.93 6.10L332.93 6.10L332.93 6.10Q333.49 6.31 333.87 6.68L333.87 6.68L333.87 6.68Q334.24 7.04 334.43 7.53L334.43 7.53L334.43 7.53Q334.61 8.01 334.61 8.54L334.61 8.54L334.61 8.96L334.61 8.96Q334.61 9.51 334.31 10.05L334.31 10.05L334.31 10.05Q334.01 10.60 333.38 10.89L333.38 10.89L333.38 11.06L333.38 11.06Q333.80 11.13 334.04 11.40L334.04 11.40L334.04 11.40Q334.28 11.66 334.28 12.15L334.28 12.15ZM329.29 6.97L329.29 10.56L331.48 10.56L331.48 10.56Q332.47 10.56 332.95 10.13L332.95 10.13L332.95 10.13Q333.44 9.70 333.44 8.88L333.44 8.88L333.44 8.62L333.44 8.62Q333.44 7.88 332.95 7.43L332.95 7.43L332.95 7.43Q332.47 6.97 331.48 6.97L331.48 6.97L329.29 6.97ZM343.34 11.87L343.34 9.69L343.34 9.69Q343.34 7.78 344.25 6.73L344.25 6.73L344.25 6.73Q345.16 5.68 346.78 5.68L346.78 5.68L346.78 5.68Q348.40 5.68 349.31 6.73L349.31 6.73L349.31 6.73Q350.22 7.78 350.22 9.69L350.22 9.69L350.22 11.87L350.22 11.87Q350.22 13.83 349.31 14.85L349.31 14.85L349.31 14.85Q348.40 15.88 346.78 15.88L346.78 15.88L346.78 15.88Q345.16 15.88 344.25 14.85L344.25 14.85L344.25 14.85Q343.34 13.83 343.34 11.87L343.34 11.87ZM346.78 14.78L346.78 14.78L346.78 14.78Q347.91 14.78 348.48 14.01L348.48 14.01L348.48 14.01Q349.05 13.23 349.05 11.79L349.05 11.79L349.05 9.77L349.05 9.77Q349.05 8.43 348.48 7.60L348.48 7.60L348.48 7.60Q347.91 6.78 346.78 6.78L346.78 6.78L346.78 6.78Q345.65 6.78 345.08 7.60L345.08 7.60L345.08 7.60Q344.51 8.43 344.51 9.77L344.51 9.77L344.51 11.79L344.51 11.79Q344.51 13.23 345.08 14.01L345.08 14.01L345.08 14.01Q345.65 14.78 346.78 14.78ZM366.48 5.88L365.48 15.68L363.34 15.68L362.43 6.38L362.26 6.38L361.35 15.68L359.21 15.68L358.22 5.88L359.28 5.88L360.22 15.18L360.39 15.18L361.27 5.88L363.43 5.88L364.31 15.18L364.48 15.18L365.41 5.88L366.48 5.88ZM390.38 6.97L390.38 5.88L396.59 5.88L396.59 6.97L394.07 6.97L394.07 14.59L396.59 14.59L396.59 15.68L390.38 15.68L390.38 14.59L392.90 14.59L392.90 6.97L390.38 6.97ZM408.14 5.88L410.97 15.18L411.14 15.18L411.14 5.88L412.31 5.88L412.31 15.68L409.96 15.68L407.13 6.38L406.97 6.38L406.97 15.68L405.79 15.68L405.79 5.88L408.14 5.88ZM426.93 9.21L426.93 8.71L426.93 8.71Q426.93 8.23 426.74 7.87L426.74 7.87L426.74 7.87Q426.55 7.50 426.23 7.27L426.23 7.27L426.23 7.27Q425.91 7.03 425.49 6.90L425.49 6.90L425.49 6.90Q425.07 6.78 424.61 6.78L424.61 6.78L424.61 6.78Q424.20 6.78 423.84 6.88L423.84 6.88L423.84 6.88Q423.47 6.99 423.18 7.18L423.18 7.18L423.18 7.18Q422.90 7.38 422.73 7.66L422.73 7.66L422.73 7.66Q422.56 7.95 422.56 8.33L422.56 8.33L422.56 8.41L422.56 8.41Q422.56 8.82 422.73 9.11L422.73 9.11L422.73 9.11Q422.90 9.39 423.23 9.60L423.23 9.60L423.23 9.60Q423.56 9.80 424.05 9.93L424.05 9.93L424.05 9.93Q424.54 10.07 425.19 10.16L425.19 10.16L425.19 10.16Q426.73 10.40 427.46 11.07L427.46 11.07L427.46 11.07Q428.19 11.73 428.19 12.85L428.19 12.85L428.19 13.02L428.19 13.02Q428.19 13.65 427.97 14.17L427.97 14.17L427.97 14.17Q427.76 14.70 427.33 15.08L427.33 15.08L427.33 15.08Q426.90 15.46 426.27 15.67L426.27 15.67L426.27 15.67Q425.64 15.88 424.82 15.88L424.82 15.88L424.82 15.88Q423.88 15.88 423.16 15.60L423.16 15.60L423.16 15.60Q422.44 15.33 421.95 14.85L421.95 14.85L421.95 14.85Q421.47 14.36 421.22 13.71L421.22 13.71L421.22 13.71Q420.97 13.06 420.97 12.29L420.97 12.29L420.97 11.87L422.14 11.87L422.14 12.21L422.14 12.21Q422.14 13.50 422.85 14.14L422.85 14.14L422.85 14.14Q423.56 14.78 424.82 14.78L424.82 14.78L424.82 14.78Q425.91 14.78 426.46 14.30L426.46 14.30L426.46 14.30Q427.01 13.82 427.01 13.02L427.01 13.02L427.01 12.94L427.01 12.94Q427.01 12.17 426.45 11.76L426.45 11.76L426.45 11.76Q425.88 11.35 424.61 11.17L424.61 11.17L424.61 11.17Q423.86 11.07 423.27 10.87L423.27 10.87L423.27 10.87Q422.67 10.67 422.25 10.34L422.25 10.34L422.25 10.34Q421.83 10.01 421.61 9.55L421.61 9.55L421.61 9.55Q421.39 9.09 421.39 8.46L421.39 8.46L421.39 8.29L421.39 8.29Q421.39 7.71 421.62 7.24L421.62 7.24L421.62 7.24Q421.86 6.76 422.29 6.41L422.29 6.41L422.29 6.41Q422.72 6.06 423.31 5.87L423.31 5.87L423.31 5.87Q423.91 5.68 424.62 5.68L424.62 5.68L424.62 5.68Q425.45 5.68 426.10 5.92L426.10 5.92L426.10 5.92Q426.75 6.16 427.20 6.56L427.20 6.56L427.20 6.56Q427.64 6.96 427.87 7.50L427.87 7.50L427.87 7.50Q428.11 8.04 428.11 8.62L428.11 8.62L428.11 9.21L426.93 9.21ZM436.74 6.97L436.74 5.88L443.63 5.88L443.63 6.97L440.78 6.97L440.78 15.68L439.60 15.68L439.60 6.97L436.74 6.97ZM452.79 15.68L452.79 5.88L458.72 5.88L458.72 6.97L453.96 6.97L453.96 10.22L458.64 10.22L458.64 11.31L453.96 11.31L453.96 14.59L458.81 14.59L458.81 15.68L452.79 15.68ZM474.14 15.68L473.42 13.24L469.22 13.24L468.51 15.68L467.25 15.68L470.22 5.88L472.43 5.88L475.40 15.68L474.14 15.68ZM471.41 6.38L471.24 6.38L469.55 12.15L473.10 12.15L471.41 6.38ZM483.63 6.97L483.63 5.88L486.85 5.88L486.85 5.88Q488.67 5.88 489.51 6.75L489.51 6.75L489.51 6.75Q490.35 7.62 490.35 9.52L490.35 9.52L490.35 12.04L490.35 12.04Q490.35 13.94 489.51 14.81L489.51 14.81L489.51 14.81Q488.67 15.68 486.85 15.68L486.85 15.68L483.63 15.68L483.63 14.57L484.47 14.57L484.47 6.97L483.63 6.97ZM485.65 14.59L486.68 14.59L486.68 14.59Q487.33 14.59 487.79 14.46L487.79 14.46L487.79 14.46Q488.26 14.34 488.57 14.04L488.57 14.04L488.57 14.04Q488.88 13.73 489.03 13.23L489.03 13.23L489.03 13.23Q489.17 12.73 489.17 11.96L489.17 11.96L489.17 9.60L489.17 9.60Q489.17 8.83 489.03 8.33L489.03 8.33L489.03 8.33Q488.88 7.83 488.57 7.53L488.57 7.53L488.57 7.53Q488.26 7.22 487.79 7.10L487.79 7.10L487.79 7.10Q487.33 6.97 486.68 6.97L486.68 6.97L485.65 6.97L485.65 14.59ZM514.58 11.87L514.58 9.69L514.58 9.69Q514.58 7.78 515.49 6.73L515.49 6.73L515.49 6.73Q516.40 5.68 518.03 5.68L518.03 5.68L518.03 5.68Q519.65 5.68 520.56 6.73L520.56 6.73L520.56 6.73Q521.47 7.78 521.47 9.69L521.47 9.69L521.47 11.87L521.47 11.87Q521.47 13.83 520.56 14.85L520.56 14.85L520.56 14.85Q519.65 15.88 518.03 15.88L518.03 15.88L518.03 15.88Q516.40 15.88 515.49 14.85L515.49 14.85L515.49 14.85Q514.58 13.83 514.58 11.87L514.58 11.87ZM518.03 14.78L518.03 14.78L518.03 14.78Q519.16 14.78 519.73 14.01L519.73 14.01L519.73 14.01Q520.30 13.23 520.30 11.79L520.30 11.79L520.30 9.77L520.30 9.77Q520.30 8.43 519.73 7.60L519.73 7.60L519.73 7.60Q519.16 6.78 518.03 6.78L518.03 6.78L518.03 6.78Q516.89 6.78 516.33 7.60L516.33 7.60L516.33 7.60Q515.76 8.43 515.76 9.77L515.76 9.77L515.76 11.79L515.76 11.79Q515.76 13.23 516.33 14.01L516.33 14.01L516.33 14.01Q516.89 14.78 518.03 14.78ZM530.64 15.68L530.64 5.88L536.66 5.88L536.66 6.97L531.82 6.97L531.82 10.22L536.58 10.22L536.58 11.31L531.82 11.31L531.82 15.68L530.64 15.68ZM568.86 5.88L567.87 15.68L565.73 15.68L564.82 6.38L564.65 6.38L563.74 15.68L561.60 15.68L560.60 5.88L561.67 5.88L562.60 15.18L562.77 15.18L563.65 5.88L565.81 5.88L566.69 15.18L566.86 15.18L567.80 5.88L568.86 5.88ZM576.86 11.87L576.86 9.69L576.86 9.69Q576.86 7.78 577.77 6.73L577.77 6.73L577.77 6.73Q578.68 5.68 580.30 5.68L580.30 5.68L580.30 5.68Q581.92 5.68 582.83 6.73L582.83 6.73L582.83 6.73Q583.74 7.78 583.74 9.69L583.74 9.69L583.74 11.87L583.74 11.87Q583.74 13.83 582.83 14.85L582.83 14.85L582.83 14.85Q581.92 15.88 580.30 15.88L580.30 15.88L580.30 15.88Q578.68 15.88 577.77 14.85L577.77 14.85L577.77 14.85Q576.86 13.83 576.86 11.87L576.86 11.87ZM580.30 14.78L580.30 14.78L580.30 14.78Q581.43 14.78 582.00 14.01L582.00 14.01L582.00 14.01Q582.57 13.23 582.57 11.79L582.57 11.79L582.57 9.77L582.57 9.77Q582.57 8.43 582.00 7.60L582.00 7.60L582.00 7.60Q581.43 6.78 580.30 6.78L580.30 6.78L580.30 6.78Q579.17 6.78 578.60 7.60L578.60 7.60L578.60 7.60Q578.03 8.43 578.03 9.77L578.03 9.77L578.03 11.79L578.03 11.79Q578.03 13.23 578.60 14.01L578.60 14.01L578.60 14.01Q579.17 14.78 580.30 14.78ZM598.93 12.15L598.93 15.68L597.76 15.68L597.76 12.40L597.76 12.40Q597.76 12.04 597.59 11.84L597.59 11.84L597.59 11.84Q597.42 11.65 597.00 11.65L597.00 11.65L593.95 11.65L593.95 15.68L592.77 15.68L592.77 5.88L596.27 5.88L596.27 5.88Q597.03 5.88 597.59 6.10L597.59 6.10L597.59 6.10Q598.15 6.31 598.52 6.68L598.52 6.68L598.52 6.68Q598.89 7.04 599.08 7.53L599.08 7.53L599.08 7.53Q599.27 8.01 599.27 8.54L599.27 8.54L599.27 8.96L599.27 8.96Q599.27 9.51 598.97 10.05L598.97 10.05L598.97 10.05Q598.67 10.60 598.04 10.89L598.04 10.89L598.04 11.06L598.04 11.06Q598.46 11.13 598.70 11.40L598.70 11.40L598.70 11.40Q598.93 11.66 598.93 12.15L598.93 12.15ZM593.95 6.97L593.95 10.56L596.13 10.56L596.13 10.56Q597.13 10.56 597.61 10.13L597.61 10.13L597.61 10.13Q598.09 9.70 598.09 8.88L598.09 8.88L598.09 8.62L598.09 8.62Q598.09 7.88 597.61 7.43L597.61 7.43L597.61 7.43Q597.13 6.97 596.13 6.97L596.13 6.97L593.95 6.97ZM614.50 12.15L614.50 15.68L613.33 15.68L613.33 12.40L613.33 12.40Q613.33 12.04 613.16 11.84L613.16 11.84L613.16 11.84Q612.99 11.65 612.57 11.65L612.57 11.65L609.52 11.65L609.52 15.68L608.34 15.68L608.34 5.88L611.84 5.88L611.84 5.88Q612.60 5.88 613.16 6.10L613.16 6.10L613.16 6.10Q613.72 6.31 614.09 6.68L614.09 6.68L614.09 6.68Q614.46 7.04 614.65 7.53L614.65 7.53L614.65 7.53Q614.84 8.01 614.84 8.54L614.84 8.54L614.84 8.96L614.84 8.96Q614.84 9.51 614.54 10.05L614.54 10.05L614.54 10.05Q614.24 10.60 613.61 10.89L613.61 10.89L613.61 11.06L613.61 11.06Q614.03 11.13 614.26 11.40L614.26 11.40L614.26 11.40Q614.50 11.66 614.50 12.15L614.50 12.15ZM609.52 6.97L609.52 10.56L611.70 10.56L611.70 10.56Q612.70 10.56 613.18 10.13L613.18 10.13L613.18 10.13Q613.66 9.70 613.66 8.88L613.66 8.88L613.66 8.62L613.66 8.62Q613.66 7.88 613.18 7.43L613.18 7.43L613.18 7.43Q612.70 6.97 611.70 6.97L611.70 6.97L609.52 6.97ZM626.42 15.68L626.42 12.24L626.16 12.24L623.10 5.88L624.41 5.88L626.92 11.23L627.09 11.23L629.59 5.88L630.91 5.88L627.84 12.24L627.59 12.24L627.59 15.68L626.42 15.68ZM639.46 6.97L639.46 5.88L645.68 5.88L645.68 6.97L643.16 6.97L643.16 14.59L645.68 14.59L645.68 15.68L639.46 15.68L639.46 14.59L641.98 14.59L641.98 6.97L639.46 6.97ZM657.23 5.88L660.06 15.18L660.23 15.18L660.23 5.88L661.40 5.88L661.40 15.68L659.05 15.68L656.22 6.38L656.05 6.38L656.05 15.68L654.88 15.68L654.88 5.88L657.23 5.88ZM672.77 12.07L672.77 10.98L677.14 10.98L677.14 15.68L676.05 15.68L676.05 14.50L675.88 14.50L675.88 14.50Q675.64 15.12 675.04 15.50L675.04 15.50L675.04 15.50Q674.44 15.88 673.64 15.88L673.64 15.88L673.64 15.88Q672.06 15.88 671.15 14.85L671.15 14.85L671.15 14.85Q670.25 13.83 670.25 11.87L670.25 11.87L670.25 9.69L670.25 9.69Q670.25 7.78 671.16 6.73L671.16 6.73L671.16 6.73Q672.07 5.68 673.69 5.68L673.69 5.68L673.69 5.68Q674.53 5.68 675.18 5.96L675.18 5.96L675.18 5.96Q675.82 6.23 676.26 6.71L676.26 6.71L676.26 6.71Q676.69 7.20 676.91 7.85L676.91 7.85L676.91 7.85Q677.14 8.50 677.14 9.24L677.14 9.24L677.14 9.41L675.96 9.41L675.96 9.24L675.96 9.24Q675.96 8.76 675.83 8.32L675.83 8.32L675.83 8.32Q675.70 7.87 675.42 7.53L675.42 7.53L675.42 7.53Q675.15 7.18 674.72 6.98L674.72 6.98L674.72 6.98Q674.30 6.78 673.69 6.78L673.69 6.78L673.69 6.78Q672.56 6.78 671.99 7.60L671.99 7.60L671.99 7.60Q671.43 8.43 671.43 9.77L671.43 9.77L671.43 11.79L671.43 11.79Q671.43 13.23 671.99 14.01L671.99 14.01L671.99 14.01Q672.56 14.78 673.72 14.78L673.72 14.78L673.72 14.78Q674.77 14.78 675.37 14.11L675.37 14.11L675.37 14.11Q675.96 13.44 675.96 12.24L675.96 12.24L675.96 12.07L672.77 12.07ZM707.66 15.68L706.94 13.24L702.74 13.24L702.03 15.68L700.77 15.68L703.74 5.88L705.95 5.88L708.92 15.68L707.66 15.68ZM704.93 6.38L704.76 6.38L703.07 12.15L706.62 12.15L704.93 6.38ZM716.93 15.68L716.93 14.59L717.77 14.59L717.77 6.97L716.93 6.97L716.93 5.88L720.89 5.88L720.89 5.88Q721.59 5.88 722.13 6.08L722.13 6.08L722.13 6.08Q722.67 6.27 723.04 6.61L723.04 6.61L723.04 6.61Q723.41 6.94 723.60 7.41L723.60 7.41L723.60 7.41Q723.79 7.88 723.79 8.43L723.79 8.43L723.79 8.60L723.79 8.60Q723.79 9.00 723.66 9.34L723.66 9.34L723.66 9.34Q723.53 9.67 723.31 9.94L723.31 9.94L723.31 9.94Q723.09 10.21 722.78 10.39L722.78 10.39L722.78 10.39Q722.48 10.58 722.13 10.68L722.13 10.68L722.13 10.85L722.13 10.85Q722.83 11.05 723.31 11.60L723.31 11.60L723.31 11.60Q723.79 12.15 723.79 12.95L723.79 12.95L723.79 13.12L723.79 13.12Q723.79 13.66 723.60 14.13L723.60 14.13L723.60 14.13Q723.41 14.60 723.04 14.95L723.04 14.95L723.04 14.95Q722.67 15.29 722.13 15.48L722.13 15.48L722.13 15.48Q721.59 15.68 720.89 15.68L720.89 15.68L716.93 15.68ZM718.94 11.31L718.94 14.59L720.80 14.59L720.80 14.59Q721.63 14.59 722.15 14.17L722.15 14.17L722.15 14.17Q722.67 13.76 722.67 13.03L722.67 13.03L722.67 12.95L722.67 12.95Q722.67 12.19 722.18 11.75L722.18 11.75L722.18 11.75Q721.69 11.31 720.85 11.31L720.85 11.31L718.94 11.31ZM718.94 6.97L718.94 10.22L720.85 10.22L720.85 10.22Q721.69 10.22 722.18 9.79L722.18 9.79L722.18 9.79Q722.67 9.35 722.67 8.60L722.67 8.60L722.67 8.51L722.67 8.51Q722.67 7.80 722.15 7.38L722.15 7.38L722.15 7.38Q721.63 6.97 720.80 6.97L720.80 6.97L718.94 6.97ZM732.54 11.87L732.54 9.69L732.54 9.69Q732.54 7.78 733.45 6.73L733.45 6.73L733.45 6.73Q734.36 5.68 735.98 5.68L735.98 5.68L735.98 5.68Q737.60 5.68 738.51 6.73L738.51 6.73L738.51 6.73Q739.42 7.78 739.42 9.69L739.42 9.69L739.42 11.87L739.42 11.87Q739.42 13.83 738.51 14.85L738.51 14.85L738.51 14.85Q737.60 15.88 735.98 15.88L735.98 15.88L735.98 15.88Q734.36 15.88 733.45 14.85L733.45 14.85L733.45 14.85Q732.54 13.83 732.54 11.87L732.54 11.87ZM735.98 14.78L735.98 14.78L735.98 14.78Q737.11 14.78 737.68 14.01L737.68 14.01L737.68 14.01Q738.25 13.23 738.25 11.79L738.25 11.79L738.25 9.77L738.25 9.77Q738.25 8.43 737.68 7.60L737.68 7.60L737.68 7.60Q737.11 6.78 735.98 6.78L735.98 6.78L735.98 6.78Q734.85 6.78 734.28 7.60L734.28 7.60L734.28 7.60Q733.71 8.43 733.71 9.77L733.71 9.77L733.71 11.79L733.71 11.79Q733.71 13.23 734.28 14.01L734.28 14.01L734.28 14.01Q734.85 14.78 735.98 14.78ZM748.19 5.88L749.36 5.88L749.36 12.38L749.36 12.38Q749.36 13.57 749.92 14.17L749.92 14.17L749.92 14.17Q750.47 14.78 751.55 14.78L751.55 14.78L751.55 14.78Q752.63 14.78 753.18 14.17L753.18 14.17L753.18 14.17Q753.73 13.57 753.73 12.38L753.73 12.38L753.73 5.88L754.91 5.88L754.91 12.38L754.91 12.38Q754.91 14.08 754.01 14.98L754.01 14.98L754.01 14.98Q753.12 15.88 751.55 15.88L751.55 15.88L751.55 15.88Q749.98 15.88 749.08 14.98L749.08 14.98L749.08 14.98Q748.19 14.08 748.19 12.38L748.19 12.38L748.19 5.88ZM763.67 6.97L763.67 5.88L770.56 5.88L770.56 6.97L767.70 6.97L767.70 15.68L766.53 15.68L766.53 6.97L763.67 6.97ZM802.38 5.88L801.39 15.68L799.25 15.68L798.34 6.38L798.17 6.38L797.26 15.68L795.12 15.68L794.12 5.88L795.19 5.88L796.12 15.18L796.29 15.18L797.17 5.88L799.33 5.88L800.21 15.18L800.38 15.18L801.32 5.88L802.38 5.88ZM810.56 15.68L810.56 5.88L811.73 5.88L811.73 10.22L815.91 10.22L815.91 5.88L817.08 5.88L817.08 15.68L815.91 15.68L815.91 11.31L811.73 11.31L811.73 15.68L810.56 15.68ZM832.20 15.68L831.49 13.24L827.29 13.24L826.57 15.68L825.31 15.68L828.28 5.88L830.49 5.88L833.46 15.68L832.20 15.68ZM829.47 6.38L829.30 6.38L827.61 12.15L831.17 12.15L829.47 6.38ZM841.51 6.97L841.51 5.88L848.40 5.88L848.40 6.97L845.54 6.97L845.54 15.68L844.37 15.68L844.37 6.97L841.51 6.97ZM872.83 15.68L872.83 5.88L874.01 5.88L874.01 10.22L878.18 10.22L878.18 5.88L879.35 5.88L879.35 15.68L878.18 15.68L878.18 11.31L874.01 11.31L874.01 15.68L872.83 15.68ZM894.47 15.68L893.76 13.24L889.56 13.24L888.85 15.68L887.59 15.68L890.55 5.88L892.77 5.88L895.73 15.68L894.47 15.68ZM891.74 6.38L891.58 6.38L889.88 12.15L893.44 12.15L891.74 6.38ZM907.63 11.65L905.31 11.65L905.31 15.68L904.13 15.68L904.13 5.88L907.63 5.88L907.63 5.88Q908.39 5.88 908.95 6.10L908.95 6.10L908.95 6.10Q909.51 6.31 909.88 6.68L909.88 6.68L909.88 6.68Q910.25 7.04 910.44 7.53L910.44 7.53L910.44 7.53Q910.63 8.01 910.63 8.54L910.63 8.54L910.63 8.96L910.63 8.96Q910.63 9.49 910.44 9.98L910.44 9.98L910.44 9.98Q910.25 10.47 909.87 10.84L909.87 10.84L909.87 10.84Q909.50 11.21 908.94 11.43L908.94 11.43L908.94 11.43Q908.38 11.65 907.63 11.65L907.63 11.65ZM905.31 6.97L905.31 10.56L907.49 10.56L907.49 10.56Q909.45 10.56 909.45 8.88L909.45 8.88L909.45 8.62L909.45 8.62Q909.45 7.88 908.97 7.43L908.97 7.43L908.97 7.43Q908.49 6.97 907.49 6.97L907.49 6.97L905.31 6.97ZM923.20 11.65L920.88 11.65L920.88 15.68L919.70 15.68L919.70 5.88L923.20 5.88L923.20 5.88Q923.96 5.88 924.52 6.10L924.52 6.10L924.52 6.10Q925.08 6.31 925.45 6.68L925.45 6.68L925.45 6.68Q925.82 7.04 926.01 7.53L926.01 7.53L926.01 7.53Q926.20 8.01 926.20 8.54L926.20 8.54L926.20 8.96L926.20 8.96Q926.20 9.49 926.01 9.98L926.01 9.98L926.01 9.98Q925.82 10.47 925.44 10.84L925.44 10.84L925.44 10.84Q925.06 11.21 924.50 11.43L924.50 11.43L924.50 11.43Q923.94 11.65 923.20 11.65L923.20 11.65ZM920.88 6.97L920.88 10.56L923.06 10.56L923.06 10.56Q925.02 10.56 925.02 8.88L925.02 8.88L925.02 8.62L925.02 8.62Q925.02 7.88 924.54 7.43L924.54 7.43L924.54 7.43Q924.06 6.97 923.06 6.97L923.06 6.97L920.88 6.97ZM935.40 15.68L935.40 5.88L941.33 5.88L941.33 6.97L936.57 6.97L936.57 10.22L941.25 10.22L941.25 11.31L936.57 11.31L936.57 14.59L941.42 14.59L941.42 15.68L935.40 15.68ZM953.02 5.88L955.85 15.18L956.02 15.18L956.02 5.88L957.19 5.88L957.19 15.68L954.84 15.68L952.01 6.38L951.85 6.38L951.85 15.68L950.67 15.68L950.67 5.88L953.02 5.88ZM966.53 15.68L966.53 5.88L972.47 5.88L972.47 6.97L967.71 6.97L967.71 10.22L972.38 10.22L972.38 11.31L967.71 11.31L967.71 14.59L972.55 14.59L972.55 15.68L966.53 15.68ZM981.81 6.97L981.81 5.88L985.03 5.88L985.03 5.88Q986.85 5.88 987.69 6.75L987.69 6.75L987.69 6.75Q988.53 7.62 988.53 9.52L988.53 9.52L988.53 12.04L988.53 12.04Q988.53 13.94 987.69 14.81L987.69 14.81L987.69 14.81Q986.85 15.68 985.03 15.68L985.03 15.68L981.81 15.68L981.81 14.57L982.65 14.57L982.65 6.97L981.81 6.97ZM983.82 14.59L984.86 14.59L984.86 14.59Q985.50 14.59 985.97 14.46L985.97 14.46L985.97 14.46Q986.44 14.34 986.75 14.04L986.75 14.04L986.75 14.04Q987.06 13.73 987.20 13.23L987.20 13.23L987.20 13.23Q987.35 12.73 987.35 11.96L987.35 11.96L987.35 9.60L987.35 9.60Q987.35 8.83 987.20 8.33L987.20 8.33L987.20 8.33Q987.06 7.83 986.75 7.53L986.75 7.53L986.75 7.53Q986.44 7.22 985.97 7.10L985.97 7.10L985.97 7.10Q985.50 6.97 984.86 6.97L984.86 6.97L983.82 6.97L983.82 14.59ZM1015.62 15.68L1015.62 12.24L1015.36 12.24L1012.30 5.88L1013.61 5.88L1016.12 11.23L1016.29 11.23L1018.79 5.88L1020.11 5.88L1017.04 12.24L1016.79 12.24L1016.79 15.68L1015.62 15.68ZM1028.80 15.68L1028.80 5.88L1034.74 5.88L1034.74 6.97L1029.98 6.97L1029.98 10.22L1034.66 10.22L1034.66 11.31L1029.98 11.31L1029.98 14.59L1034.82 14.59L1034.82 15.68L1028.80 15.68ZM1049.65 9.21L1049.65 8.71L1049.65 8.71Q1049.65 8.23 1049.46 7.87L1049.46 7.87L1049.46 7.87Q1049.27 7.50 1048.95 7.27L1048.95 7.27L1048.95 7.27Q1048.63 7.03 1048.21 6.90L1048.21 6.90L1048.21 6.90Q1047.79 6.78 1047.33 6.78L1047.33 6.78L1047.33 6.78Q1046.92 6.78 1046.56 6.88L1046.56 6.88L1046.56 6.88Q1046.19 6.99 1045.90 7.18L1045.90 7.18L1045.90 7.18Q1045.62 7.38 1045.45 7.66L1045.45 7.66L1045.45 7.66Q1045.28 7.95 1045.28 8.33L1045.28 8.33L1045.28 8.41L1045.28 8.41Q1045.28 8.82 1045.45 9.11L1045.45 9.11L1045.45 9.11Q1045.62 9.39 1045.95 9.60L1045.95 9.60L1045.95 9.60Q1046.28 9.80 1046.77 9.93L1046.77 9.93L1046.77 9.93Q1047.26 10.07 1047.91 10.16L1047.91 10.16L1047.91 10.16Q1049.45 10.40 1050.18 11.07L1050.18 11.07L1050.18 11.07Q1050.91 11.73 1050.91 12.85L1050.91 12.85L1050.91 13.02L1050.91 13.02Q1050.91 13.65 1050.69 14.17L1050.69 14.17L1050.69 14.17Q1050.48 14.70 1050.05 15.08L1050.05 15.08L1050.05 15.08Q1049.62 15.46 1048.99 15.67L1048.99 15.67L1048.99 15.67Q1048.36 15.88 1047.54 15.88L1047.54 15.88L1047.54 15.88Q1046.60 15.88 1045.88 15.60L1045.88 15.60L1045.88 15.60Q1045.16 15.33 1044.67 14.85L1044.67 14.85L1044.67 14.85Q1044.19 14.36 1043.94 13.71L1043.94 13.71L1043.94 13.71Q1043.69 13.06 1043.69 12.29L1043.69 12.29L1043.69 11.87L1044.86 11.87L1044.86 12.21L1044.86 12.21Q1044.86 13.50 1045.57 14.14L1045.57 14.14L1045.57 14.14Q1046.28 14.78 1047.54 14.78L1047.54 14.78L1047.54 14.78Q1048.63 14.78 1049.18 14.30L1049.18 14.30L1049.18 14.30Q1049.73 13.82 1049.73 13.02L1049.73 13.02L1049.73 12.94L1049.73 12.94Q1049.73 12.17 1049.17 11.76L1049.17 11.76L1049.17 11.76Q1048.60 11.35 1047.33 11.17L1047.33 11.17L1047.33 11.17Q1046.58 11.07 1045.99 10.87L1045.99 10.87L1045.99 10.87Q1045.39 10.67 1044.97 10.34L1044.97 10.34L1044.97 10.34Q1044.55 10.01 1044.33 9.55L1044.33 9.55L1044.33 9.55Q1044.11 9.09 1044.11 8.46L1044.11 8.46L1044.11 8.29L1044.11 8.29Q1044.11 7.71 1044.34 7.24L1044.34 7.24L1044.34 7.24Q1044.58 6.76 1045.01 6.41L1045.01 6.41L1045.01 6.41Q1045.44 6.06 1046.03 5.87L1046.03 5.87L1046.03 5.87Q1046.63 5.68 1047.34 5.68L1047.34 5.68L1047.34 5.68Q1048.17 5.68 1048.82 5.92L1048.82 5.92L1048.82 5.92Q1049.47 6.16 1049.92 6.56L1049.92 6.56L1049.92 6.56Q1050.36 6.96 1050.59 7.50L1050.59 7.50L1050.59 7.50Q1050.83 8.04 1050.83 8.62L1050.83 8.62L1050.83 9.21L1049.65 9.21ZM1059.46 6.97L1059.46 5.88L1066.35 5.88L1066.35 6.97L1063.50 6.97L1063.50 15.68L1062.32 15.68L1062.32 6.97L1059.46 6.97ZM1075.51 15.68L1075.51 5.88L1081.44 5.88L1081.44 6.97L1076.68 6.97L1076.68 10.22L1081.36 10.22L1081.36 11.31L1076.68 11.31L1076.68 14.59L1081.53 14.59L1081.53 15.68L1075.51 15.68ZM1097.11 12.15L1097.11 15.68L1095.93 15.68L1095.93 12.40L1095.93 12.40Q1095.93 12.04 1095.77 11.84L1095.77 11.84L1095.77 11.84Q1095.60 11.65 1095.18 11.65L1095.18 11.65L1092.13 11.65L1092.13 15.68L1090.95 15.68L1090.95 5.88L1094.45 5.88L1094.45 5.88Q1095.21 5.88 1095.77 6.10L1095.77 6.10L1095.77 6.10Q1096.33 6.31 1096.70 6.68L1096.70 6.68L1096.70 6.68Q1097.07 7.04 1097.26 7.53L1097.26 7.53L1097.26 7.53Q1097.45 8.01 1097.45 8.54L1097.45 8.54L1097.45 8.96L1097.45 8.96Q1097.45 9.51 1097.14 10.05L1097.14 10.05L1097.14 10.05Q1096.84 10.60 1096.21 10.89L1096.21 10.89L1096.21 11.06L1096.21 11.06Q1096.63 11.13 1096.87 11.40L1096.87 11.40L1096.87 11.40Q1097.11 11.66 1097.11 12.15L1097.11 12.15ZM1092.13 6.97L1092.13 10.56L1094.31 10.56L1094.31 10.56Q1095.30 10.56 1095.79 10.13L1095.79 10.13L1095.79 10.13Q1096.27 9.70 1096.27 8.88L1096.27 8.88L1096.27 8.62L1096.27 8.62Q1096.27 7.88 1095.79 7.43L1095.79 7.43L1095.79 7.43Q1095.30 6.97 1094.31 6.97L1094.31 6.97L1092.13 6.97ZM1106.35 6.97L1106.35 5.88L1109.57 5.88L1109.57 5.88Q1111.39 5.88 1112.23 6.75L1112.23 6.75L1112.23 6.75Q1113.07 7.62 1113.07 9.52L1113.07 9.52L1113.07 12.04L1113.07 12.04Q1113.07 13.94 1112.23 14.81L1112.23 14.81L1112.23 14.81Q1111.39 15.68 1109.57 15.68L1109.57 15.68L1106.35 15.68L1106.35 14.57L1107.19 14.57L1107.19 6.97L1106.35 6.97ZM1108.37 14.59L1109.40 14.59L1109.40 14.59Q1110.05 14.59 1110.51 14.46L1110.51 14.46L1110.51 14.46Q1110.98 14.34 1111.29 14.04L1111.29 14.04L1111.29 14.04Q1111.60 13.73 1111.75 13.23L1111.75 13.23L1111.75 13.23Q1111.89 12.73 1111.89 11.96L1111.89 11.96L1111.89 9.60L1111.89 9.60Q1111.89 8.83 1111.75 8.33L1111.75 8.33L1111.75 8.33Q1111.60 7.83 1111.29 7.53L1111.29 7.53L1111.29 7.53Q1110.98 7.22 1110.51 7.10L1110.51 7.10L1110.51 7.10Q1110.05 6.97 1109.40 6.97L1109.40 6.97L1108.37 6.97L1108.37 14.59ZM1127.99 15.68L1127.28 13.24L1123.08 13.24L1122.37 15.68L1121.11 15.68L1124.07 5.88L1126.29 5.88L1129.25 15.68L1127.99 15.68ZM1125.26 6.38L1125.10 6.38L1123.40 12.15L1126.96 12.15L1125.26 6.38ZM1140.16 15.68L1140.16 12.24L1139.91 12.24L1136.84 5.88L1138.16 5.88L1140.66 11.23L1140.83 11.23L1143.34 5.88L1144.65 5.88L1141.59 12.24L1141.34 12.24L1141.34 15.68L1140.16 15.68ZM1155.34 14.90L1155.34 14.90L1155.34 14.90Q1155.34 14.49 1155.62 14.20L1155.62 14.20L1155.62 14.20Q1155.91 13.92 1156.32 13.92L1156.32 13.92L1156.32 13.92Q1156.72 13.92 1157.01 14.20L1157.01 14.20L1157.01 14.20Q1157.30 14.49 1157.30 14.90L1157.30 14.90L1157.30 14.90Q1157.30 15.30 1157.01 15.59L1157.01 15.59L1157.01 15.59Q1156.72 15.88 1156.32 15.88L1156.32 15.88L1156.32 15.88Q1155.91 15.88 1155.62 15.59L1155.62 15.59L1155.62 15.59Q1155.34 15.30 1155.34 14.90Z"></path></g></svg>